<?xml version="1.0" encoding="utf-8"?>
<!-- Generator: Adobe Illustrator 26.3.1, SVG Export Plug-In . SVG Version: 6.00 Build 0)  -->
<svg version="1.1" id="Calque_1" xmlns="http://www.w3.org/2000/svg" xmlns:xlink="http://www.w3.org/1999/xlink" x="0px" y="0px"
	 viewBox="0 0 24 24" style="enable-background:new 0 0 24 24;" xml:space="preserve">
<style type="text/css">
	.st0{fill:#FFFFFF;}
	.st1{stroke:#000000;stroke-width:1.3655;stroke-linecap:round;stroke-miterlimit:10;}
	.st2{stroke:#000000;stroke-width:1.2368;stroke-linecap:round;stroke-miterlimit:10;stroke-dasharray:4.2;}
	.st3{fill:none;stroke:#FFFFFF;stroke-width:0.7;stroke-linecap:round;stroke-linejoin:round;stroke-miterlimit:10;}
</style>
<g>
	<path d="M20.3,8.6c0.2,0.6-0.3,1.2-1,1.2c-1.2-0.1-2.5-0.2-3.7-0.2c-0.4,0-0.7-0.2-1-0.4c-0.7-0.6-1.6-1-2.7-1c-1,0-2,0.4-2.7,1
		c-0.3,0.2-0.6,0.4-1,0.4c-1.2,0-2.5,0.1-3.7,0.2C4,9.8,3.4,9.1,3.7,8.5C5.1,5.2,8.3,3,12,3c1.2,0,2.3,0.2,3.4,0.7
		c0.1-0.5,0.3-1,0.6-1.4c-1.2-0.5-2.6-0.8-3.9-0.8C6.2,1.4,1.5,6.2,1.5,12S6.2,22.5,12,22.5c5.8,0,10.5-4.7,10.5-10.5
		c0-1.4-0.3-2.7-0.8-4C21.3,8.3,20.9,8.5,20.3,8.6z M8.9,20.5c-3-1.1-5.3-3.7-5.8-6.9c-0.1-0.7,0.6-1.3,1.2-1c3,1,5.2,3.5,5.7,6.6
		l0,0.3C10.3,20.1,9.6,20.7,8.9,20.5z M12,13.9c-0.9,0-1.7-0.8-1.7-1.7c0-0.9,0.8-1.7,1.7-1.7c0.9,0,1.7,0.8,1.7,1.7
		C13.7,13.2,12.9,13.9,12,13.9z M20.9,13.6c-0.6,3.2-2.8,5.8-5.8,6.9c-0.7,0.2-1.4-0.4-1.2-1.1l0-0.3c0.6-3.1,2.8-5.6,5.8-6.6
		C20.3,12.3,21,12.9,20.9,13.6z"/>
	<path d="M18.2,6.5c0.1,0.1,0.2,0.1,0.3,0.1s0.2,0,0.3-0.1l3.4-3.4c0.2-0.2,0.2-0.4,0-0.6s-0.4-0.2-0.6,0l-3.1,3.1l-1.2-1.2
		c-0.2-0.2-0.4-0.2-0.6,0s-0.2,0.4,0,0.6L18.2,6.5z"/>
</g>
</svg>
