<?xml version="1.0" encoding="utf-8"?>
<!-- Generator: Adobe Illustrator 26.3.1, SVG Export Plug-In . SVG Version: 6.00 Build 0)  -->
<svg version="1.1" id="Calque_1" xmlns="http://www.w3.org/2000/svg" xmlns:xlink="http://www.w3.org/1999/xlink" x="0px" y="0px"
	 viewBox="0 0 24 24" style="enable-background:new 0 0 24 24;" xml:space="preserve">
<style type="text/css">
	.st0{fill:#FFFFFF;}
	.st1{stroke:#000000;stroke-width:1.3655;stroke-linecap:round;stroke-miterlimit:10;}
	.st2{stroke:#000000;stroke-width:1.2368;stroke-linecap:round;stroke-miterlimit:10;stroke-dasharray:4.2;}
	.st3{fill:none;stroke:#FFFFFF;stroke-width:0.7;stroke-linecap:round;stroke-linejoin:round;stroke-miterlimit:10;}
</style>
<g>
	<path d="M21.8,8c-0.4,0.3-0.9,0.5-1.4,0.6c0.2,0.6-0.3,1.2-1,1.2c-1.2-0.1-2.4-0.2-3.7-0.2c-0.4,0-0.7-0.2-1-0.4
		c-0.7-0.6-1.7-1-2.7-1c-1,0-2,0.4-2.7,1c-0.3,0.2-0.6,0.4-1,0.4c-1.2,0-2.5,0.1-3.7,0.2C4,9.8,3.4,9.1,3.7,8.5C5.1,5.2,8.3,3,12,3
		c1.2,0,2.3,0.2,3.4,0.7c0.1-0.5,0.3-1,0.6-1.4c-1.2-0.5-2.6-0.8-4-0.8C6.2,1.4,1.5,6.2,1.5,12S6.2,22.5,12,22.5S22.6,17.8,22.6,12
		C22.6,10.6,22.3,9.3,21.8,8z M8.9,20.5c-3-1.1-5.3-3.7-5.8-6.9c-0.1-0.7,0.6-1.3,1.2-1c3,1,5.2,3.5,5.8,6.6l0,0.3
		C10.3,20.1,9.6,20.7,8.9,20.5z M12,13.9c-0.9,0-1.7-0.8-1.7-1.7c0-0.9,0.8-1.7,1.7-1.7c1,0,1.7,0.8,1.7,1.7
		C13.7,13.2,12.9,13.9,12,13.9z M20.9,13.6c-0.5,3.2-2.8,5.8-5.8,6.9c-0.7,0.2-1.3-0.4-1.2-1.1l0.1-0.3c0.5-3.1,2.8-5.6,5.8-6.6
		C20.3,12.3,21,12.9,20.9,13.6z"/>
	<path d="M17.3,6.7c0.1,0.1,0.2,0.1,0.3,0.1c0.1,0,0.2,0,0.3-0.1l1.7-1.7l1.7,1.7c0.1,0.1,0.2,0.1,0.3,0.1s0.2,0,0.3-0.1
		c0.2-0.2,0.2-0.4,0-0.6l-1.7-1.7l1.7-1.7c0.2-0.2,0.2-0.4,0-0.6s-0.4-0.2-0.6,0l-1.7,1.7l-1.7-1.7c-0.2-0.2-0.4-0.2-0.6,0
		s-0.2,0.4,0,0.6l1.7,1.7l-1.7,1.7C17.1,6.3,17.1,6.6,17.3,6.7z"/>
</g>
</svg>
