<?xml version="1.0" encoding="utf-8"?>
<!-- Generator: Adobe Illustrator 26.3.1, SVG Export Plug-In . SVG Version: 6.00 Build 0)  -->
<svg version="1.1" id="Calque_1" xmlns="http://www.w3.org/2000/svg" xmlns:xlink="http://www.w3.org/1999/xlink" x="0px" y="0px"
	 viewBox="0 0 24 24" style="enable-background:new 0 0 24 24;" xml:space="preserve">
<style type="text/css">
	.st0{fill:#FFFFFF;}
	.st1{stroke:#000000;stroke-width:1.3655;stroke-linecap:round;stroke-miterlimit:10;}
	.st2{stroke:#000000;stroke-width:1.2368;stroke-linecap:round;stroke-miterlimit:10;stroke-dasharray:4.2;}
	.st3{fill:none;stroke:#FFFFFF;stroke-width:0.7;stroke-linecap:round;stroke-linejoin:round;stroke-miterlimit:10;}
</style>
<g>
	<path d="M23.3,6.1c0,0.4-0.3,0.7-0.7,0.7H1.4C1,6.8,0.7,6.5,0.7,6.1S1,5.4,1.4,5.4h21.3C23,5.4,23.3,5.7,23.3,6.1z"/>
</g>
<g>
	<path d="M22.4,12.6h-4.2c-0.3,0-0.6-0.3-0.6-0.6s0.3-0.6,0.6-0.6h4.2c0.3,0,0.6,0.3,0.6,0.6S22.8,12.6,22.4,12.6z M14,12.6H9.8
		c-0.3,0-0.6-0.3-0.6-0.6s0.3-0.6,0.6-0.6H14c0.3,0,0.6,0.3,0.6,0.6S14.4,12.6,14,12.6z M5.6,12.6H1.4c-0.3,0-0.6-0.3-0.6-0.6
		s0.3-0.6,0.6-0.6h4.2c0.3,0,0.6,0.3,0.6,0.6S5.9,12.6,5.6,12.6z"/>
</g>
<g>
	<path d="M22.6,18.6H1.4c-0.4,0-0.7-0.3-0.7-0.7s0.3-0.7,0.7-0.7h21.3c0.4,0,0.7,0.3,0.7,0.7S23,18.6,22.6,18.6z"/>
</g>
</svg>
